<svg id="visual" viewBox="0 0 960 540" width="960" height="540" xmlns="http://www.w3.org/2000/svg" xmlns:xlink="http://www.w3.org/1999/xlink" version="1.1"><rect x="0" y="0" width="960" height="540" fill="#126E82"></rect><path d="M0 316L22.8 325C45.7 334 91.3 352 137 359.3C182.7 366.7 228.3 363.3 274 364.3C319.7 365.3 365.3 370.7 411.2 369.2C457 367.7 503 359.3 548.8 357C594.7 354.7 640.3 358.3 686 365.2C731.7 372 777.3 382 823 378.5C868.7 375 914.3 358 937.2 349.5L960 341L960 541L937.2 541C914.3 541 868.7 541 823 541C777.3 541 731.7 541 686 541C640.3 541 594.7 541 548.8 541C503 541 457 541 411.2 541C365.3 541 319.7 541 274 541C228.3 541 182.7 541 137 541C91.3 541 45.7 541 22.8 541L0 541Z" fill="#51c4d3"></path><path d="M0 416L22.8 409.8C45.7 403.7 91.3 391.3 137 383.7C182.7 376 228.3 373 274 377C319.7 381 365.3 392 411.2 395.2C457 398.3 503 393.7 548.8 391.8C594.7 390 640.3 391 686 393.8C731.7 396.7 777.3 401.3 823 398.2C868.7 395 914.3 384 937.2 378.5L960 373L960 541L937.2 541C914.3 541 868.7 541 823 541C777.3 541 731.7 541 686 541C640.3 541 594.7 541 548.8 541C503 541 457 541 411.2 541C365.3 541 319.7 541 274 541C228.3 541 182.7 541 137 541C91.3 541 45.7 541 22.8 541L0 541Z" fill="#41aebe"></path><path d="M0 414L22.8 418.2C45.7 422.3 91.3 430.7 137 430.2C182.7 429.7 228.3 420.3 274 423.7C319.7 427 365.3 443 411.2 442.8C457 442.7 503 426.3 548.8 422.2C594.7 418 640.3 426 686 424C731.7 422 777.3 410 823 409.2C868.7 408.3 914.3 418.7 937.2 423.8L960 429L960 541L937.2 541C914.3 541 868.7 541 823 541C777.3 541 731.7 541 686 541C640.3 541 594.7 541 548.8 541C503 541 457 541 411.2 541C365.3 541 319.7 541 274 541C228.3 541 182.7 541 137 541C91.3 541 45.7 541 22.8 541L0 541Z" fill="#3298aa"></path><path d="M0 439L22.8 441.8C45.7 444.7 91.3 450.3 137 449.3C182.7 448.3 228.3 440.7 274 442C319.7 443.3 365.3 453.7 411.2 454.7C457 455.7 503 447.3 548.8 442.8C594.7 438.3 640.3 437.7 686 441.2C731.7 444.7 777.3 452.3 823 459C868.7 465.7 914.3 471.3 937.2 474.2L960 477L960 541L937.2 541C914.3 541 868.7 541 823 541C777.3 541 731.7 541 686 541C640.3 541 594.7 541 548.8 541C503 541 457 541 411.2 541C365.3 541 319.7 541 274 541C228.3 541 182.7 541 137 541C91.3 541 45.7 541 22.8 541L0 541Z" fill="#238396"></path><path d="M0 486L22.8 488C45.7 490 91.3 494 137 498.2C182.7 502.3 228.3 506.7 274 508.8C319.7 511 365.3 511 411.2 507.5C457 504 503 497 548.8 492.5C594.7 488 640.3 486 686 483.2C731.7 480.3 777.3 476.7 823 477.3C868.7 478 914.3 483 937.2 485.5L960 488L960 541L937.2 541C914.3 541 868.7 541 823 541C777.3 541 731.7 541 686 541C640.3 541 594.7 541 548.8 541C503 541 457 541 411.2 541C365.3 541 319.7 541 274 541C228.3 541 182.7 541 137 541C91.3 541 45.7 541 22.8 541L0 541Z" fill="#126e82"></path></svg>